<?xml version="1.0" encoding="UTF-8" standalone="no"?>
<!-- Created with Inkscape (http://www.inkscape.org/) -->

<svg
   width="178.68822mm"
   height="50.945229mm"
   viewBox="0 0 178.68822 50.945228"
   version="1.1"
   id="svg1"
   xml:space="preserve"
   xmlns:xlink="http://www.w3.org/1999/xlink"
   xmlns="http://www.w3.org/2000/svg"
   xmlns:svg="http://www.w3.org/2000/svg"><defs
     id="defs1"><linearGradient
       id="linearGradient129"><stop
         style="stop-color:#209877;stop-opacity:1;"
         offset="0.14209847"
         id="stop129" /><stop
         style="stop-color:#1da3ff;stop-opacity:1;"
         offset="0.56445193"
         id="stop131" /><stop
         style="stop-color:#0065f4;stop-opacity:1;"
         offset="1"
         id="stop130" /></linearGradient><linearGradient
       id="linearGradient127"><stop
         style="stop-color:#00cfa9;stop-opacity:1;"
         offset="0.07895769"
         id="stop125" /><stop
         style="stop-color:#1da1ff;stop-opacity:1;"
         offset="0.64077592"
         id="stop126" /><stop
         style="stop-color:#002fb1;stop-opacity:1;"
         offset="1"
         id="stop127" /></linearGradient><linearGradient
       id="swatch18"><stop
         style="stop-color:#0052d4;stop-opacity:1;"
         offset="0"
         id="stop18" /></linearGradient><linearGradient
       xlink:href="#linearGradient127"
       id="linearGradient133"
       gradientUnits="userSpaceOnUse"
       gradientTransform="matrix(0.74536277,0,0,0.74536277,-56.395781,-28.573313)"
       x1="91.502258"
       y1="86.893188"
       x2="117.1045"
       y2="115.19709" /><linearGradient
       xlink:href="#linearGradient129"
       id="linearGradient134"
       gradientUnits="userSpaceOnUse"
       x1="11.621925"
       y1="36.448177"
       x2="26.510632"
       y2="53.36665"
       gradientTransform="translate(0.00639977,0.00122302)" /></defs><g
     id="layer1"
     transform="translate(-180.75168,-61.059484)"><g
       id="g58"
       transform="matrix(2.3194679,0,0,2.3194679,153.87373,-22.005239)"><path
         style="fill:url(#linearGradient133);stroke:url(#linearGradient134);stroke-width:0.0862267;stroke-linecap:round;stroke-dasharray:none;stroke-opacity:1"
         d="m 11.668545,35.872853 c 0,4.317852 8.63e-4,8.641732 -0.0045,12.961809 -0.0013,1.261561 -0.01634,2.520324 -0.01634,3.783114 v 1.137007 c 0,0.160692 -0.03919,0.380212 0.0067,0.53442 0.02854,0.0962 0.185556,0.0651 0.262172,0.0651 h 0.826905 2.584093 0.661531 c 0.07944,0 0.213592,-0.02501 0.282841,0.02121 0.06731,0.0449 0.04793,0.157773 0.04793,0.226832 v 0.599508 2.52207 c 0.176549,-0.0341 0.331977,-0.184128 0.475475,-0.286497 0.290101,-0.206939 0.581229,-0.41428 0.868251,-0.625492 0.80916,-0.59543 1.612879,-1.205311 2.439383,-1.77599 0.294262,-0.20318 0.570799,-0.486719 0.888924,-0.649239 0.190492,-0.0973 0.533346,-0.03242 0.744222,-0.03242 0.528324,0 1.047012,-0.01798 1.571128,-0.0885 1.445409,-0.194721 2.864618,-0.752203 4.05186,-1.600643 3.665582,-2.619572 4.73891,-7.836221 2.806144,-11.83081 -0.666761,-1.378031 -1.713837,-2.564282 -2.971531,-3.43114 -1.208212,-0.832769 -2.654268,-1.34411 -4.113874,-1.485462 -1.098748,-0.106408 -2.224179,-0.0449 -3.328316,-0.0449 h -8.083004 m 13.49929,14.69832 c 0,-1.068862 -0.02065,-2.13496 -0.02065,-3.20427 v -0.930277 c 0,-0.131116 0.0316,-0.311688 -0.02251,-0.433828 -0.08341,-0.18822 -0.282051,-0.16568 -0.452948,-0.16568 H 23.4727 c -0.15848,0 -0.351641,-0.03359 -0.463723,0.105528 -0.09972,0.123813 -0.07379,0.30457 -0.07379,0.45263 v 0.992301 3.98983 l -1.074984,0.0827 c -0.02751,-0.15254 0.003,-0.301147 -0.0039,-0.454488 -0.02052,-0.495973 -0.01699,-0.99206 -0.01699,-1.488743 v -1.033638 c 0,-0.132699 0.03518,-0.321548 -0.05031,-0.433302 -0.120838,-0.15792 -0.311274,-0.124869 -0.487176,-0.124869 h -1.157675 c -0.171578,0 -0.368257,-0.02759 -0.469716,0.145542 -0.06708,0.114478 -0.04711,0.264957 -0.04711,0.39196 v 0.764887 2.460061 0.661522 c 0,0.0928 0.02324,0.224582 -0.02125,0.30927 -0.05419,0.103041 -0.197222,0.170849 -0.288843,0.236998 -0.237718,0.171621 -0.507495,0.457161 -0.785568,0.549393 v -3.059561 -0.826922 c 0,-0.125529 0.02311,-0.279417 -0.04323,-0.392461 -0.09685,-0.165089 -0.288213,-0.145029 -0.452949,-0.145029 H 16.83647 c -0.159494,0 -0.37472,-0.03311 -0.473626,0.12599 -0.101804,0.163732 -0.04316,0.473372 -0.04316,0.65957 v 1.65382 h -1.715819 v -1.881221 c 0,-0.225707 -0.07148,-0.598349 0.0194,-0.805927 0.117816,-0.26923 0.501671,-0.512941 0.703342,-0.723851 0.565225,-0.591101 1.138274,-1.178581 1.716657,-1.757179 0.355288,-0.355431 0.700523,-0.719471 1.054315,-1.074979 0.0827,-0.0831 0.268251,-0.347162 0.392771,-0.347162 0.135066,0 0.365106,0.31487 0.452949,0.40918 0.384407,0.412668 0.80227,0.798498 1.200853,1.199008 0.09651,0.097 0.360553,0.48493 0.516834,0.462511 0.08451,-0.01212 0.170906,-0.13666 0.227319,-0.19376 0.182288,-0.18449 0.365684,-0.368127 0.541388,-0.558981 0.614597,-0.667567 1.277068,-1.300738 1.91875,-1.94242 0.196627,-0.19664 0.382609,-0.403049 0.578835,-0.599508 0.05806,-0.0581 0.154441,-0.1942 0.24807,-0.185288 0.09328,0.009 0.186595,0.144477 0.248079,0.205956 0.198463,0.19846 0.390611,0.437803 0.620181,0.599513 l 0.238792,-1.281712 0.505422,-2.542752 -1.881212,0.426922 -1.860552,0.420669 c 0.145697,0.206824 0.358742,0.379402 0.537494,0.558163 0.05411,0.0541 0.181779,0.142627 0.181779,0.227397 0,0.14696 -0.350468,0.396091 -0.450526,0.49614 -0.399523,0.399531 -0.80418,0.794583 -1.198714,1.19902 -0.116338,0.11926 -0.284803,0.40295 -0.455105,0.439273 -0.137825,0.0294 -0.396423,-0.340332 -0.496127,-0.42736 -0.438967,-0.383183 -0.827741,-0.839633 -1.240379,-1.25227 -0.092,-0.092 -0.319418,-0.412311 -0.454798,-0.412311 -0.09887,0 -0.225043,0.182538 -0.289429,0.246928 -0.252191,0.252191 -0.503124,0.50409 -0.746054,0.764891 -0.599362,0.643432 -1.237439,1.258961 -1.858698,1.88122 -0.309192,0.309679 -0.592115,0.698169 -0.950947,0.950951 l -0.02065,-0.785568 v -1.529782 -4.87877 h 5.788362 c 0.693181,0 1.418834,-0.0622 2.108622,0.0039 1.036793,0.0987 2.063352,0.410991 2.935531,0.988861 2.844863,1.884889 3.574044,5.935546 1.815295,8.806507 -0.470789,0.768499 -1.237296,1.63991 -2.084042,2.005253 z"
         id="path132" /><g
         id="g56"
         style="fill:#ffffff;fill-opacity:1"><path
           style="font-weight:800;font-size:12.5072px;font-family:Montserrat;-inkscape-font-specification:'Montserrat Ultra-Bold';fill:#ffffff;fill-opacity:1;stroke-width:0.260567"
           d="m 36.138951,38.836101 h 4.139883 c 0.958885,0 1.809375,0.17927 2.551469,0.537809 0.742094,0.35854 1.328914,0.869207 1.737482,1.52792 0.408568,0.658712 0.601364,1.427948 0.601364,2.311791 0,0.883842 -0.204284,1.655119 -0.612852,2.313832 -0.408569,0.658713 -0.9839,1.167339 -1.725994,1.525878 -0.742094,0.35854 -1.592584,0.53781 -2.551469,0.53781 h -4.139883 z m 4.039826,6.778902 c 0.750432,0 1.350777,-0.212622 1.801036,-0.637867 0.458597,-0.425245 0.687896,-1.013083 0.687896,-1.763515 0,-0.750432 -0.229299,-1.338271 -0.687896,-1.763516 -0.450259,-0.425245 -1.050604,-0.637867 -1.801036,-0.637867 h -1.563401 v 4.802765 z m 6.190047,-4.800724 h 2.376368 l -0.01149,6.776862 h -2.376368 z m 6.792426,-0.114606 c 1.125648,0 1.984476,0.258482 2.576483,0.775447 0.592008,0.508626 0.888012,1.29241 0.888012,2.351353 v 3.764668 H 54.41197 v -0.875504 c -0.341863,0.658713 -1.008914,0.988069 -2.001152,0.988069 -0.525302,0 -0.97973,-0.09172 -1.363285,-0.275159 -0.383554,-0.183439 -0.675389,-0.429414 -0.875504,-0.737925 -0.191777,-0.316849 -0.287665,-0.675388 -0.287665,-1.075619 0,-0.642036 0.245975,-1.138155 0.737925,-1.488357 0.491949,-0.358539 1.250719,-0.537809 2.27631,-0.537809 h 1.350778 c -0.04169,-0.71708 -0.521136,-1.07562 -1.438328,-1.07562 -0.325187,0 -0.654544,0.0542 -0.988069,0.162594 -0.333525,0.100057 -0.617022,0.241806 -0.85049,0.425245 l -0.800461,-1.613429 c 0.375216,-0.250144 0.829644,-0.441921 1.363285,-0.575331 0.541979,-0.141749 1.083957,-0.212623 1.625936,-0.212623 z m -0.08755,5.503169 c 0.275158,0 0.516964,-0.0667 0.725417,-0.200116 0.208453,-0.13341 0.35854,-0.329356 0.45026,-0.587838 v -0.587839 h -1.025591 c -0.692065,0 -1.038097,0.229299 -1.038097,0.687897 0,0.208453 0.07921,0.375216 0.237636,0.500288 0.158425,0.125072 0.375216,0.187608 0.650375,0.187608 z m 7.429281,-7.892044 v 9.280343 H 58.126612 V 39.41703 Z m 4.940341,9.392908 c -0.725417,0 -1.379961,-0.150087 -1.96363,-0.45026 -0.583669,-0.300173 -1.042267,-0.717079 -1.375792,-1.25072 -0.325187,-0.53364 -0.487781,-1.138155 -0.487781,-1.813544 0,-0.667051 0.162594,-1.267396 0.487781,-1.801037 0.333525,-0.53364 0.787953,-0.946377 1.363284,-1.238212 0.583669,-0.300173 1.242382,-0.45026 1.976138,-0.45026 0.733756,0 1.392469,0.150087 1.976138,0.45026 0.583669,0.291835 1.038097,0.704572 1.363284,1.238212 0.325187,0.525303 0.487781,1.125648 0.487781,1.801037 0,0.675389 -0.162594,1.279904 -0.487781,1.813544 -0.325187,0.533641 -0.779615,0.950547 -1.363284,1.25072 -0.583669,0.300173 -1.242382,0.45026 -1.976138,0.45026 z m 0,-1.888588 c 0.416907,0 0.75877,-0.141748 1.02559,-0.425244 0.266821,-0.291835 0.400231,-0.692066 0.400231,-1.200692 0,-0.500288 -0.13341,-0.89218 -0.400231,-1.175677 -0.26682,-0.283496 -0.608683,-0.425244 -1.02559,-0.425244 -0.416907,0 -0.75877,0.141748 -1.02559,0.425244 -0.266821,0.283497 -0.400231,0.675389 -0.400231,1.175677 0,0.508626 0.13341,0.908857 0.400231,1.200692 0.26682,0.283496 0.608683,0.425244 1.02559,0.425244 z m 12.219539,-5.00288 v 5.54069 c 0,1.259058 -0.341864,2.201267 -1.025591,2.826627 -0.683727,0.633698 -1.667626,0.950547 -2.951699,0.950547 -0.667051,0 -1.292411,-0.07504 -1.87608,-0.225129 -0.583669,-0.150087 -1.079788,-0.371047 -1.488357,-0.662882 l 0.862997,-1.663457 c 0.275159,0.225129 0.621191,0.40023 1.038098,0.525302 0.425245,0.13341 0.842151,0.200115 1.25072,0.200115 0.62536,0 1.083957,-0.137579 1.375792,-0.412737 0.291835,-0.275159 0.437752,-0.683727 0.437752,-1.225706 v -0.22513 c -0.458597,0.533641 -1.129817,0.800461 -2.013659,0.800461 -0.600346,0 -1.154832,-0.13341 -1.663458,-0.40023 -0.508626,-0.275159 -0.913025,-0.658713 -1.213198,-1.150663 -0.300173,-0.500288 -0.45026,-1.075619 -0.45026,-1.725993 0,-0.642037 0.150087,-1.20903 0.45026,-1.70098 0.300173,-0.500288 0.704572,-0.883842 1.213198,-1.150662 0.508626,-0.275159 1.063112,-0.412738 1.663458,-0.412738 0.967223,0 1.675965,0.31268 2.126224,0.93804 v -0.825475 z m -3.827203,4.540114 c 0.425245,0 0.775446,-0.129241 1.050604,-0.387723 0.283497,-0.258483 0.425245,-0.592008 0.425245,-1.000576 0,-0.408569 -0.137579,-0.737925 -0.412737,-0.988069 -0.275159,-0.258482 -0.629529,-0.387723 -1.063112,-0.387723 -0.433583,0 -0.792123,0.129241 -1.07562,0.387723 -0.275158,0.250144 -0.412737,0.5795 -0.412737,0.988069 0,0.408568 0.141748,0.742093 0.425245,1.000576 0.283496,0.258482 0.637867,0.387723 1.063112,0.387723 z m 5.353079,-4.540114 h 2.376368 v 6.778903 h -2.376368 z m 8.21723,6.778903 -1.213199,-1.776023 -1.300749,1.776023 h -2.576483 l 2.576483,-3.389452 -2.50144,-3.389451 h 2.676541 l 1.200691,1.713487 1.25072,-1.713487 h 2.513948 l -2.50144,3.301901 2.58899,3.477002 z"
           id="path54"
           transform="scale(0.98342668,1.0168526)"
           aria-label="Dialogix" /><path
           id="path55"
           style="fill:#ffffff;fill-opacity:1;fill-rule:evenodd;stroke-width:1.17213;stroke-linecap:round;stroke-opacity:0.382356"
           d="m 259.11402,235.90169 5.42319,-1.88445 1.2e-4,4.22738 -5.42375,2.04283 z"
           transform="matrix(0.43113337,0,0,0.43113337,-66.111952,-62.833635)" /><path
           id="path56"
           style="fill:#ffffff;fill-opacity:1;fill-rule:evenodd;stroke-width:1.17213;stroke-linecap:round;stroke-opacity:0.382356"
           d="m 333.97457,235.90582 5.42319,-1.88445 1.2e-4,4.22738 -5.42375,2.04283 z"
           transform="matrix(0.43113337,0,0,0.43113337,-66.111952,-62.833635)" /></g></g></g></svg>
