<?xml version="1.0" encoding="UTF-8" standalone="no"?>
<!-- Created with Inkscape (http://www.inkscape.org/) -->

<svg
   width="178.70306mm"
   height="50.945179mm"
   viewBox="0 0 178.70306 50.945179"
   version="1.1"
   id="svg1"
   xml:space="preserve"
   xmlns:xlink="http://www.w3.org/1999/xlink"
   xmlns="http://www.w3.org/2000/svg"
   xmlns:svg="http://www.w3.org/2000/svg"><defs
     id="defs1"><linearGradient
       id="linearGradient129"><stop
         style="stop-color:#209877;stop-opacity:1;"
         offset="0.14209847"
         id="stop129" /><stop
         style="stop-color:#1da3ff;stop-opacity:1;"
         offset="0.56445193"
         id="stop131" /><stop
         style="stop-color:#0065f4;stop-opacity:1;"
         offset="1"
         id="stop130" /></linearGradient><linearGradient
       id="linearGradient127"><stop
         style="stop-color:#00cfa9;stop-opacity:1;"
         offset="0.07895769"
         id="stop125" /><stop
         style="stop-color:#1da1ff;stop-opacity:1;"
         offset="0.64077592"
         id="stop126" /><stop
         style="stop-color:#002fb1;stop-opacity:1;"
         offset="1"
         id="stop127" /></linearGradient><linearGradient
       id="swatch18"><stop
         style="stop-color:#0052d4;stop-opacity:1;"
         offset="0"
         id="stop18" /></linearGradient><linearGradient
       xlink:href="#linearGradient127"
       id="linearGradient13"
       x1="91.502258"
       y1="86.893188"
       x2="117.1045"
       y2="115.19709"
       gradientUnits="userSpaceOnUse"
       gradientTransform="matrix(0.74536275,0,0,0.74536275,-56.402179,-28.574535)" /><linearGradient
       xlink:href="#linearGradient129"
       id="linearGradient130"
       x1="11.621925"
       y1="36.448177"
       x2="26.510632"
       y2="53.36665"
       gradientUnits="userSpaceOnUse" /></defs><g
     id="layer1"
     transform="translate(-180.20767,-228.80252)"><g
       id="g22"
       transform="matrix(2.3194679,0,0,2.3194679,153.34455,145.7406)"><path
         style="fill:url(#linearGradient13);stroke:url(#linearGradient130);stroke-width:0.0862267;stroke-linecap:round;stroke-dasharray:none;stroke-opacity:1"
         d="m 11.662143,35.87163 c 0,4.31785 7.45e-4,8.64173 -0.0045,12.96181 -0.0015,1.26156 -0.01632,2.52032 -0.01632,3.78311 v 1.13701 c 0,0.16069 -0.03921,0.38021 0.0067,0.53442 0.02855,0.0962 0.185558,0.0651 0.262173,0.0651 h 0.826906 2.584091 0.661531 c 0.07944,0 0.213592,-0.025 0.282843,0.0212 0.06731,0.0449 0.04793,0.15777 0.04793,0.22683 v 0.59951 2.52207 c 0.176547,-0.0341 0.331977,-0.18413 0.475474,-0.2865 0.290103,-0.20694 0.581227,-0.41428 0.868253,-0.62549 0.809159,-0.59543 1.612876,-1.20531 2.439379,-1.77599 0.294262,-0.20318 0.570799,-0.48672 0.888927,-0.64924 0.190492,-0.0973 0.533344,-0.0324 0.744222,-0.0324 0.528321,0 1.047011,-0.018 1.571128,-0.0885 1.445407,-0.19472 2.864615,-0.7522 4.051859,-1.60064 3.665582,-2.61957 4.738912,-7.83622 2.806142,-11.83081 -0.666757,-1.37803 -1.713835,-2.56428 -2.971531,-3.43114 -1.20821,-0.83277 -2.654266,-1.34411 -4.113873,-1.48546 -1.098746,-0.10641 -2.224177,-0.0449 -3.328313,-0.0449 h -8.083029 m 13.49929,14.69832 c 0,-1.06886 -0.02065,-2.13496 -0.02065,-3.20427 v -0.93028 c 0,-0.13112 0.0316,-0.31169 -0.02251,-0.43383 -0.08341,-0.18822 -0.282053,-0.16568 -0.452949,-0.16568 h -1.199021 c -0.158479,0 -0.351639,-0.0336 -0.46372,0.10553 -0.09972,0.12381 -0.07379,0.30457 -0.07379,0.45263 v 0.9923 3.98983 l -1.074984,0.0827 c -0.0275,-0.15254 0.003,-0.30115 -0.0037,-0.45449 -0.0205,-0.49597 -0.01699,-0.99206 -0.01699,-1.48874 V 48.482 c 0,-0.1327 0.03518,-0.32155 -0.05031,-0.4333 -0.120838,-0.15792 -0.311271,-0.12487 -0.487177,-0.12487 h -1.157675 c -0.171575,0 -0.368254,-0.0276 -0.469712,0.14554 -0.06708,0.11448 -0.04711,0.26496 -0.04711,0.39196 v 0.76489 2.46006 0.66152 c 0,0.0928 0.02325,0.22458 -0.02124,0.30927 -0.05419,0.10304 -0.197223,0.17085 -0.288843,0.237 -0.237719,0.17162 -0.507495,0.45716 -0.785568,0.54939 V 50.3839 49.55698 c 0,-0.12553 0.02311,-0.27942 -0.04323,-0.39246 -0.09685,-0.16509 -0.288209,-0.14503 -0.452949,-0.14503 h -1.199015 c -0.159493,0 -0.374717,-0.0331 -0.473626,0.12599 -0.101802,0.16373 -0.04316,0.47337 -0.04316,0.65957 v 1.65382 h -1.71584 v -1.88122 c 0,-0.22571 -0.07148,-0.59835 0.01938,-0.80593 0.117819,-0.26923 0.501673,-0.51294 0.703346,-0.72385 0.565224,-0.5911 1.138274,-1.17858 1.716653,-1.75718 0.355292,-0.35543 0.700524,-0.71947 1.054318,-1.07498 0.0827,-0.0831 0.268248,-0.34716 0.392768,-0.34716 0.135068,0 0.365109,0.31487 0.45295,0.40918 0.384406,0.41267 0.802271,0.7985 1.200854,1.19901 0.09651,0.097 0.360554,0.48493 0.516834,0.46251 0.08451,-0.0121 0.170905,-0.13666 0.227321,-0.19376 0.182286,-0.18449 0.365683,-0.36813 0.541387,-0.55898 0.614596,-0.66757 1.277067,-1.30074 1.91875,-1.94242 0.196627,-0.19664 0.38261,-0.40305 0.578834,-0.59951 0.05806,-0.0581 0.154439,-0.1942 0.248071,-0.18529 0.09328,0.009 0.186595,0.14448 0.248079,0.20596 0.198461,0.19846 0.390608,0.4378 0.62018,0.59951 l 0.238791,-1.28171 0.505423,-2.54275 -1.881213,0.42692 -1.860552,0.42067 c 0.145696,0.20682 0.358743,0.3794 0.537496,0.55816 0.05411,0.0541 0.181779,0.14263 0.181779,0.2274 0,0.14696 -0.35047,0.39609 -0.450527,0.49614 -0.399522,0.39953 -0.80418,0.79458 -1.198715,1.19902 -0.116336,0.11926 -0.284803,0.40295 -0.455104,0.43927 -0.137825,0.0294 -0.396421,-0.34033 -0.496128,-0.42736 -0.438966,-0.38318 -0.82774,-0.83963 -1.24038,-1.25227 -0.092,-0.092 -0.319418,-0.41231 -0.454798,-0.41231 -0.09887,0 -0.22504,0.18254 -0.289425,0.24693 -0.252193,0.25219 -0.503127,0.50409 -0.746058,0.76489 -0.599361,0.64343 -1.237436,1.25896 -1.858696,1.88122 -0.309192,0.30968 -0.592116,0.69817 -0.950949,0.95095 l -0.02065,-0.78557 v -1.52978 -4.87877 h 5.788362 c 0.69318,0 1.418835,-0.0622 2.108624,0.004 1.036792,0.0987 2.06335,0.41099 2.935529,0.98886 2.844863,1.88489 3.574044,5.93555 1.815294,8.80651 -0.470786,0.7685 -1.237295,1.63991 -2.084042,2.00525 z"
         id="path2" /><g
         id="g51"><path
           style="font-weight:800;font-size:12.5072px;font-family:Montserrat;-inkscape-font-specification:'Montserrat Ultra-Bold';fill:#3d444e;stroke-width:0.260567"
           d="m 36.138951,38.836101 h 4.139883 c 0.958885,0 1.809375,0.17927 2.551469,0.537809 0.742094,0.35854 1.328914,0.869207 1.737482,1.52792 0.408568,0.658712 0.601364,1.427948 0.601364,2.311791 0,0.883842 -0.204284,1.655119 -0.612852,2.313832 -0.408569,0.658713 -0.9839,1.167339 -1.725994,1.525878 -0.742094,0.35854 -1.592584,0.53781 -2.551469,0.53781 h -4.139883 z m 4.039826,6.778902 c 0.750432,0 1.350777,-0.212622 1.801036,-0.637867 0.458597,-0.425245 0.687896,-1.013083 0.687896,-1.763515 0,-0.750432 -0.229299,-1.338271 -0.687896,-1.763516 -0.450259,-0.425245 -1.050604,-0.637867 -1.801036,-0.637867 h -1.563401 v 4.802765 z m 6.190047,-4.800724 h 2.376368 l -0.01149,6.776862 h -2.376368 z m 6.792426,-0.114606 c 1.125648,0 1.984476,0.258482 2.576483,0.775447 0.592008,0.508626 0.888012,1.29241 0.888012,2.351353 v 3.764668 H 54.41197 v -0.875504 c -0.341863,0.658713 -1.008914,0.988069 -2.001152,0.988069 -0.525302,0 -0.97973,-0.09172 -1.363285,-0.275159 -0.383554,-0.183439 -0.675389,-0.429414 -0.875504,-0.737925 -0.191777,-0.316849 -0.287665,-0.675388 -0.287665,-1.075619 0,-0.642036 0.245975,-1.138155 0.737925,-1.488357 0.491949,-0.358539 1.250719,-0.537809 2.27631,-0.537809 h 1.350778 c -0.04169,-0.71708 -0.521136,-1.07562 -1.438328,-1.07562 -0.325187,0 -0.654544,0.0542 -0.988069,0.162594 -0.333525,0.100057 -0.617022,0.241806 -0.85049,0.425245 l -0.800461,-1.613429 c 0.375216,-0.250144 0.829644,-0.441921 1.363285,-0.575331 0.541979,-0.141749 1.083957,-0.212623 1.625936,-0.212623 z m -0.08755,5.503169 c 0.275158,0 0.516964,-0.0667 0.725417,-0.200116 0.208453,-0.13341 0.35854,-0.329356 0.45026,-0.587838 v -0.587839 h -1.025591 c -0.692065,0 -1.038097,0.229299 -1.038097,0.687897 0,0.208453 0.07921,0.375216 0.237636,0.500288 0.158425,0.125072 0.375216,0.187608 0.650375,0.187608 z m 7.429281,-7.892044 v 9.280343 H 58.126612 V 39.41703 Z m 4.940341,9.392908 c -0.725417,0 -1.379961,-0.150087 -1.96363,-0.45026 -0.583669,-0.300173 -1.042267,-0.717079 -1.375792,-1.25072 -0.325187,-0.53364 -0.487781,-1.138155 -0.487781,-1.813544 0,-0.667051 0.162594,-1.267396 0.487781,-1.801037 0.333525,-0.53364 0.787953,-0.946377 1.363284,-1.238212 0.583669,-0.300173 1.242382,-0.45026 1.976138,-0.45026 0.733756,0 1.392469,0.150087 1.976138,0.45026 0.583669,0.291835 1.038097,0.704572 1.363284,1.238212 0.325187,0.525303 0.487781,1.125648 0.487781,1.801037 0,0.675389 -0.162594,1.279904 -0.487781,1.813544 -0.325187,0.533641 -0.779615,0.950547 -1.363284,1.25072 -0.583669,0.300173 -1.242382,0.45026 -1.976138,0.45026 z m 0,-1.888588 c 0.416907,0 0.75877,-0.141748 1.02559,-0.425244 0.266821,-0.291835 0.400231,-0.692066 0.400231,-1.200692 0,-0.500288 -0.13341,-0.89218 -0.400231,-1.175677 -0.26682,-0.283496 -0.608683,-0.425244 -1.02559,-0.425244 -0.416907,0 -0.75877,0.141748 -1.02559,0.425244 -0.266821,0.283497 -0.400231,0.675389 -0.400231,1.175677 0,0.508626 0.13341,0.908857 0.400231,1.200692 0.26682,0.283496 0.608683,0.425244 1.02559,0.425244 z m 12.219539,-5.00288 v 5.54069 c 0,1.259058 -0.341864,2.201267 -1.025591,2.826627 -0.683727,0.633698 -1.667626,0.950547 -2.951699,0.950547 -0.667051,0 -1.292411,-0.07504 -1.87608,-0.225129 -0.583669,-0.150087 -1.079788,-0.371047 -1.488357,-0.662882 l 0.862997,-1.663457 c 0.275159,0.225129 0.621191,0.40023 1.038098,0.525302 0.425245,0.13341 0.842151,0.200115 1.25072,0.200115 0.62536,0 1.083957,-0.137579 1.375792,-0.412737 0.291835,-0.275159 0.437752,-0.683727 0.437752,-1.225706 v -0.22513 c -0.458597,0.533641 -1.129817,0.800461 -2.013659,0.800461 -0.600346,0 -1.154832,-0.13341 -1.663458,-0.40023 -0.508626,-0.275159 -0.913025,-0.658713 -1.213198,-1.150663 -0.300173,-0.500288 -0.45026,-1.075619 -0.45026,-1.725993 0,-0.642037 0.150087,-1.20903 0.45026,-1.70098 0.300173,-0.500288 0.704572,-0.883842 1.213198,-1.150662 0.508626,-0.275159 1.063112,-0.412738 1.663458,-0.412738 0.967223,0 1.675965,0.31268 2.126224,0.93804 v -0.825475 z m -3.827203,4.540114 c 0.425245,0 0.775446,-0.129241 1.050604,-0.387723 0.283497,-0.258483 0.425245,-0.592008 0.425245,-1.000576 0,-0.408569 -0.137579,-0.737925 -0.412737,-0.988069 -0.275159,-0.258482 -0.629529,-0.387723 -1.063112,-0.387723 -0.433583,0 -0.792123,0.129241 -1.07562,0.387723 -0.275158,0.250144 -0.412737,0.5795 -0.412737,0.988069 0,0.408568 0.141748,0.742093 0.425245,1.000576 0.283496,0.258482 0.637867,0.387723 1.063112,0.387723 z m 5.353079,-4.540114 h 2.376368 v 6.778903 h -2.376368 z m 8.21723,6.778903 -1.213199,-1.776023 -1.300749,1.776023 h -2.576483 l 2.576483,-3.389452 -2.50144,-3.389451 h 2.676541 l 1.200691,1.713487 1.25072,-1.713487 h 2.513948 l -2.50144,3.301901 2.58899,3.477002 z"
           id="text2"
           transform="scale(0.98342668,1.0168526)"
           aria-label="Dialogix" /><path
           id="rect44"
           style="fill:#3d444e;fill-opacity:1;fill-rule:evenodd;stroke-width:1.17213;stroke-linecap:round;stroke-opacity:0.382356"
           d="m 259.11402,235.90169 5.42319,-1.88445 1.2e-4,4.22738 -5.42375,2.04283 z"
           transform="matrix(0.43113337,0,0,0.43113337,-66.111952,-62.833635)" /><path
           id="path48"
           style="fill:#3d444e;fill-opacity:1;fill-rule:evenodd;stroke-width:1.17213;stroke-linecap:round;stroke-opacity:0.382356"
           d="m 333.97457,235.90582 5.42319,-1.88445 1.2e-4,4.22738 -5.42375,2.04283 z"
           transform="matrix(0.43113337,0,0,0.43113337,-66.111952,-62.833635)" /></g></g></g></svg>
